<?xml version="1.0" encoding="UTF-8" standalone="no"?>
<svg
   xmlns:dc="http://purl.org/dc/elements/1.1/"
   xmlns:cc="http://creativecommons.org/ns#"
   xmlns:rdf="http://www.w3.org/1999/02/22-rdf-syntax-ns#"
   xmlns:svg="http://www.w3.org/2000/svg"
   xmlns="http://www.w3.org/2000/svg"
   xmlns:xlink="http://www.w3.org/1999/xlink"
   xmlns:sodipodi="http://sodipodi.sourceforge.net/DTD/sodipodi-0.dtd"
   xmlns:inkscape="http://www.inkscape.org/namespaces/inkscape"
   version="1.1"
   id="svg2"
   height="48"
   width="48"
   inkscape:version="0.91 r13725"
   sodipodi:docname="yast-online_update.svg">
  <sodipodi:namedview
     pagecolor="#ffffff"
     bordercolor="#666666"
     borderopacity="1"
     objecttolerance="10"
     gridtolerance="10"
     guidetolerance="10"
     inkscape:pageopacity="0"
     inkscape:pageshadow="2"
     inkscape:window-width="1600"
     inkscape:window-height="871"
     id="namedview6125"
     showgrid="false"
     inkscape:zoom="4.9166667"
     inkscape:cx="24"
     inkscape:cy="24"
     inkscape:window-x="0"
     inkscape:window-y="0"
     inkscape:window-maximized="1"
     inkscape:current-layer="svg2" />
  <metadata
     id="metadata45">
    <rdf:RDF>
      <cc:Work
         rdf:about="">
        <dc:format>image/svg+xml</dc:format>
        <dc:type
           rdf:resource="http://purl.org/dc/dcmitype/StillImage" />
        <dc:title />
      </cc:Work>
    </rdf:RDF>
  </metadata>
  <defs
     id="defs4">
    <linearGradient
       gradientUnits="userSpaceOnUse"
       x2="0"
       y2="512.8"
       y1="543.8"
       id="a">
      <stop
         id="stop7"
         stop-color="#cea476" />
      <stop
         id="stop9"
         stop-color="#dab58b"
         offset="1" />
    </linearGradient>
    <linearGradient
       gradientUnits="userSpaceOnUse"
       x2="0"
       y2="503.8"
       y1="512.8"
       id="b">
      <stop
         id="stop12"
         stop-color="#ebc69a" />
      <stop
         id="stop14"
         stop-opacity="0"
         stop-color="#f4e0c8"
         offset="1" />
    </linearGradient>
    <linearGradient
       gradientTransform="translate(0,-1025.6)"
       x2="0"
       gradientUnits="userSpaceOnUse"
       y2="503.8"
       y1="512.8"
       id="c"
       xlink:href="#b" />
    <linearGradient
       gradientTransform="matrix(0.75,0,0,0.75,-288.4275,-364.85)"
       gradientUnits="userSpaceOnUse"
       x2="0"
       y2="503.8"
       y1="512.8"
       id="d"
       xlink:href="#a" />
    <linearGradient
       gradientTransform="matrix(0.75,0,0,0.75,-288.4275,-364.85)"
       gradientUnits="userSpaceOnUse"
       x2="417.57"
       y2="534.8"
       x1="399.57"
       y1="516.8"
       id="e">
      <stop
         id="stop19"
         stop-color="#292c2f" />
      <stop
         id="stop21"
         stop-opacity="0"
         offset="1" />
    </linearGradient>
    <linearGradient
       gradientTransform="translate(384.57,499.8)"
       gradientUnits="userSpaceOnUse"
       x2="0"
       y2="33"
       y1="13"
       id="b-3">
      <stop
         id="stop12-5"
         stop-color="#f67400" />
      <stop
         id="stop14-6"
         stop-color="#fdbc4b"
         offset="1" />
    </linearGradient>
    <linearGradient
       gradientTransform="translate(-20,-20)"
       gradientUnits="userSpaceOnUse"
       x2="418.57001"
       y2="536.79999"
       x1="402.57001"
       y1="520.79999"
       id="e-2">
      <stop
         id="stop23"
         stop-color="#292c2f" />
      <stop
         id="stop25"
         stop-opacity="0"
         offset="1" />
    </linearGradient>
    <linearGradient
       gradientTransform="matrix(1,0,0,-1,384.57,545.8)"
       gradientUnits="userSpaceOnUse"
       x2="0"
       y2="33"
       y1="13"
       id="b-6">
      <stop
         id="stop12-7"
         stop-color="#42a603" />
      <stop
         id="stop14-5"
         stop-color="#78da06"
         offset="1" />
    </linearGradient>
    <linearGradient
       y2="503.8"
       x2="0"
       y1="512.8"
       gradientUnits="userSpaceOnUse"
       id="linearGradient4188"
       xlink:href="#b" />
    <linearGradient
       gradientTransform="matrix(0.75,0,0,0.75,-288.4275,-364.85)"
       y2="512.8"
       x2="0"
       y1="543.8"
       gradientUnits="userSpaceOnUse"
       id="linearGradient4190"
       xlink:href="#a" />
  </defs>
  <rect
     width="30"
     x="3.0000074"
     y="19.749989"
     height="23.25"
     id="rect25"
     style="fill:url(#linearGradient4190);stroke-width:2.79999995;stroke-opacity:0.55" />
  <path
     d="M 3,19.75 7.5,13 29.25,13 33,19.75 Z"
     id="path27"
     style="fill:url(#d);fill-rule:evenodd"
     inkscape:connector-curvature="0" />
  <g
     id="g29"
     transform="matrix(0.75,0,0,0.75,-288.4275,-364.85)"
     style="stroke-width:2.79999995;stroke-opacity:0.55">
    <path
       d="m 21,4 0,40 1,-1 1,1 1,-1 1,1 1,-1 1,1 0,-40 z"
       transform="translate(384.57,499.8)"
       id="path31"
       style="fill:#f4e0c8"
       inkscape:connector-curvature="0" />
    <rect
       width="6"
       x="405.57001"
       y="503.79999"
       height="9"
       id="rect33"
       style="fill:url(#linearGradient4188)" />
    <rect
       width="6"
       x="405.57001"
       y="-521.79999"
       height="9"
       transform="scale(1,-1)"
       id="rect35"
       style="fill:url(#c)" />
  </g>
  <path
     d="M 20.25,19.75 33,32.5 33,43 20.25,43 Z"
     id="path39"
     style="opacity:0.2;fill:url(#e);fill-rule:evenodd"
     inkscape:connector-curvature="0" />
  <rect
     width="30"
     x="3.0000074"
     y="42.249989"
     height="0.75"
     id="rect41"
     style="fill:#9f8569;stroke-width:2.79999995;stroke-opacity:0.55" />
  <path
     id="path8"
     d="m 38.859598,0.0651865 0,3.5 c -4.142136,0 -7.5,3.3578647 -7.5,7.5000005 0,4.142136 3.357864,7.5 7.5,7.5 4.142136,0 7.5,-3.357864 7.5,-7.5 l -3,0 c 0,2.485281 -2.014719,4.5 -4.5,4.5 -2.485281,0 -4.5,-2.014719 -4.5,-4.5 0,-2.485282 2.014718,-4.5000005 4.5,-4.5000005 l 0,3.5000005 4.5,-5.0000005 z"
     style="fill:#ff8b00;fill-opacity:1;stroke:none"
     inkscape:connector-curvature="0"
     sodipodi:nodetypes="ccssccsscccc" />
  <path
     id="path6-1"
     class="ColorScheme-Text"
     d="m 47.292969,32 -3.5,3.5 -1.5,-1.5 -2,2 L 37,39.292969 l -2,2 1.5,1.5 -4.5,4.5 L 32.707031,48 l 4.5,-4.5 1.5,1.5 2,-2 L 44,39.707031 l 2,-2 -1.5,-1.5 3.5,-3.5 L 47.292969,32 Z"
     style="fill:currentColor;fill-opacity:1;stroke:none"
     inkscape:connector-curvature="0" />
</svg>
