<?xml version="1.0" encoding="UTF-8" standalone="no"?>
<!-- Created with Inkscape (http://www.inkscape.org/) -->

<svg
   xmlns:dc="http://purl.org/dc/elements/1.1/"
   xmlns:cc="http://creativecommons.org/ns#"
   xmlns:rdf="http://www.w3.org/1999/02/22-rdf-syntax-ns#"
   xmlns:svg="http://www.w3.org/2000/svg"
   xmlns="http://www.w3.org/2000/svg"
   xmlns:xlink="http://www.w3.org/1999/xlink"
   xmlns:sodipodi="http://sodipodi.sourceforge.net/DTD/sodipodi-0.dtd"
   xmlns:inkscape="http://www.inkscape.org/namespaces/inkscape"
   width="64"
   version="1.1"
   height="64"
   id="svg2"
   inkscape:version="0.91 r13725"
   sodipodi:docname="yast-system.svg">
  <sodipodi:namedview
     pagecolor="#ffffff"
     bordercolor="#666666"
     borderopacity="1"
     objecttolerance="10"
     gridtolerance="10"
     guidetolerance="10"
     inkscape:pageopacity="0"
     inkscape:pageshadow="2"
     inkscape:window-width="1600"
     inkscape:window-height="871"
     id="namedview85"
     showgrid="false"
     inkscape:zoom="7.375"
     inkscape:cx="53.286012"
     inkscape:cy="38.648108"
     inkscape:window-x="0"
     inkscape:window-y="0"
     inkscape:window-maximized="1"
     inkscape:current-layer="layer1" />
  <defs
     id="defs5455">
    <linearGradient
       inkscape:collect="always"
       id="linearGradient4159">
      <stop
         style="stop-color:#2a2c2f"
         id="stop4161" />
      <stop
         offset="1"
         style="stop-color:#424649"
         id="stop4163" />
    </linearGradient>
    <linearGradient
       inkscape:collect="always"
       id="linearGradient4250"
       xlink:href="#linearGradient4159"
       y1="536.79797"
       y2="503.798"
       gradientUnits="userSpaceOnUse"
       x2="0"
       gradientTransform="matrix(1.0833331 0 0 1.0909092 -34.04753 -49.799908)" />
    <linearGradient
       inkscape:collect="always"
       id="linearGradient4272"
       xlink:href="#linearGradient4303"
       y1="547.79797"
       y2="536.79797"
       gradientUnits="userSpaceOnUse"
       x2="0"
       gradientTransform="matrix(1.1666674 0 0 1.0909092 -68.09551 -49.799906)" />
    <linearGradient
       inkscape:collect="always"
       id="linearGradient4303">
      <stop
         style="stop-color:#c6cdd1"
         id="stop4305" />
      <stop
         offset="1"
         style="stop-color:#e0e5e7"
         id="stop4307" />
    </linearGradient>
    <linearGradient
       gradientTransform="matrix(1.7862888,0,0,1.8877273,381.82598,453.36585)"
       id="l"
       y1="34.612"
       x1="14.187"
       y2="54.612"
       x2="34.189999"
       gradientUnits="userSpaceOnUse">
      <stop
         stop-color="#383e51"
         id="stop54" />
      <stop
         offset="1"
         stop-color="#655c6f"
         stop-opacity="0"
         id="stop56" />
    </linearGradient>
    <linearGradient
       gradientTransform="matrix(1.7862888,0,0,1.8877273,-305.12713,-490.12028)"
       id="k"
       y1="539.88"
       x1="410.5"
       y2="529.72998"
       x2="390.64999"
       gradientUnits="userSpaceOnUse">
      <stop
         stop-color="#bcfd93"
         id="stop49" />
      <stop
         offset="1"
         stop-color="#fafff5"
         id="stop51" />
    </linearGradient>
    <linearGradient
       id="h"
       y1="557.79999"
       y2="505.79999"
       gradientUnits="userSpaceOnUse"
       x2="0"
       gradientTransform="matrix(1.1639965,0,0,1.1390293,-75.371878,-101.10015)">
      <stop
         stop-color="#42a603"
         id="stop38" />
      <stop
         offset="1"
         stop-color="#78da06"
         id="stop40" />
    </linearGradient>
  </defs>
  <metadata
     id="metadata5458">
    <rdf:RDF>
      <cc:Work
         rdf:about="">
        <dc:format>image/svg+xml</dc:format>
        <dc:type
           rdf:resource="http://purl.org/dc/dcmitype/StillImage" />
      </cc:Work>
    </rdf:RDF>
  </metadata>
  <g
     inkscape:label="Capa 1"
     inkscape:groupmode="layer"
     id="layer1"
     transform="matrix(1 0 0 1 -376.57144 -491.79797)">
    <path
       inkscape:connector-curvature="0"
       style="stroke-opacity:0.550265;fill:url(#linearGradient4272);stroke-width:2.8"
       id="rect4254"
       d="m 401.57143,535.79797 0,7.63636 0,2.18182 0,2.18182 14,0 0,-2.18182 0,-2.18182 0,-7.63636 z" />
    <rect
       width="51.999989"
       x="382.57144"
       y="499.79797"
       height="39.27273"
       style="stroke-opacity:0.550265;fill:url(#linearGradient4250);stroke-width:2.8"
       id="rect4173" />
    <rect
       width="23.999969"
       x="396.57144"
       y="546.79797"
       height="1.00002"
       style="stroke-opacity:0.550265;fill:#99a1a7;stroke-width:2.8"
       id="rect4295" />
    <rect
       style="fill:#46943b;stroke-width:2.79999995;stroke-opacity:0.55"
       width="47.594765"
       x="384.67914"
       y="534.7749"
       rx="0"
       height="2.2942722"
       id="rect78" />
    <g
       id="g3563"
       transform="translate(0,0.54237288)">
      <rect
         id="rect76"
         height="32.576271"
         rx="0"
         y="501.67935"
         x="384.67914"
         width="47.594761"
         style="fill:url(#h)" />
      <path
         id="path100"
         d="m 427.94794,517.71847 0.15542,-0.0303 c 0.0428,0.0359 0.0358,0.10761 0.0232,0.17179 -0.0286,0.15102 -0.0983,0.42284 -0.14469,0.5512 l -0.0393,0.10573 c -0.0554,0.15857 -0.11074,0.30769 -0.21435,0.39829 -0.28938,0.27939 -0.75381,0.50215 -1.48083,0.83628 -1.12357,0.51912 -2.94381,0.8457 -4.63363,0.83627 -0.60555,-0.0133 -1.19146,-0.085 -1.7059,-0.14726 -1.57552,-0.19065 -2.71339,-0.32657 -2.94917,1.18738 -0.29831,1.88773 1.38795,4.20019 1.40582,4.22096 l 0,0.0623 -0.0554,0.0132 c 0,0 -2.69014,-1.31008 -2.75624,-1.34784 l -0.0858,-0.0642 -0.0678,-0.0698 c -0.20365,-0.20576 -0.61091,-0.66826 -1.43797,-1.68197 -1.6041,-1.95946 -3.48148,-2.21807 -4.92659,-1.8443 -0.3519,0.0887 -0.80204,0.36055 -1.09321,0.66825 -0.75559,0.78719 -0.66986,2.37287 -0.62699,2.94863 0.0501,0.65316 0.0822,0.70224 0.0965,0.75509 l -0.008,0.0661 -0.0536,0.008 -0.0304,-0.0227 -2.20607,-1.14019 -0.084,-0.38132 c -0.0573,-0.25108 -0.12146,-0.53044 -0.2465,-0.87968 -0.78953,-2.19731 -2.56153,-3.85097 -4.51574,-4.20774 -1.32005,-0.23974 -3.72619,-0.26807 -4.99982,2.2747 -0.53231,1.06091 -0.50015,2.44273 0.084,3.60744 0.59483,1.19117 1.65945,1.95569 2.91701,2.10293 1.24861,0.14347 2.18641,-0.16234 2.71337,-0.88156 0.53052,-0.72677 0.63055,-1.71782 0.25364,-2.52389 -0.40369,-0.86648 -1.01461,-1.32519 -1.8631,-1.40069 -0.64484,-0.0623 -1.12535,0.22275 -1.29684,0.51346 -0.05,0.0907 -0.14111,0.25863 -0.1429,0.49647 l 0,0.009 c 0,0.64938 0.56269,0.82684 0.67701,0.83627 0.0358,0 0.20363,-0.005 0.42869,-0.0642 l 0.184,-0.064 0.0554,-0.009 c 0.40906,-0.0794 0.80205,0.17557 0.91637,0.59652 0.0196,0.0773 0.0304,0.15479 0.0304,0.23219 0,0.27938 -0.13398,0.538 -0.35727,0.69658 l -0.0518,0.034 c -0.11787,0.0794 -0.22509,0.12281 -0.33939,0.16045 -0.31977,0.11138 -0.60377,0.16237 -0.88959,0.16237 -0.97353,-10e-4 -2.32932,-0.88724 -2.34898,-2.55032 -0.008,-0.93822 0.43586,-1.79336 1.22006,-2.34267 0.90384,-0.63051 2.46506,-0.8457 3.91197,0.0924 1.78271,1.15342 2.24715,3.41114 1.78271,4.95152 -0.67522,2.22941 -2.57762,3.42246 -5.08736,3.18459 -1.77735,-0.16799 -3.42966,-1.15905 -4.41213,-2.65225 -0.43586,-0.66071 -0.75918,-1.39879 -0.93423,-2.13312 -0.40191,-1.68197 0.005,-3.46965 0.30724,-4.2606 0.96102,-2.51824 2.80089,-4.68346 5.46426,-6.43904 l 0.16791,-0.11138 c 5.66432,-3.67917 9.67276,-3.53005 12.61121,-3.42244 3.46183,0.12646 7.14515,1.38937 7.66138,1.5668 9.9e-4,-0.1208 0.0215,-1.21191 0.0215,-1.21191 l 0.0143,-0.0378 0.0393,-0.009 c 0.23223,0.034 5.20525,0.81361 7.30057,2.10482 0.25901,0.16233 0.38762,0.32845 0.54839,0.50401 0.57876,0.63239 1.34507,3.26576 1.42546,3.81322 l -0.0304,0.0547 c -0.0304,0.009 -0.10183,0.0679 -0.19828,0.13591 -0.48766,0.36056 -1.63088,1.20626 -3.09564,1.06846 -1.31649,-0.12269 -3.03669,-0.92121 -5.11057,-2.36345 0.091,0.22653 0.52339,1.30821 0.59663,1.48943 l 0.0268,0.0359 c 0.3001,0.16424 3.18138,1.71594 4.6122,1.68574 1.15393,-0.0245 2.38468,-0.61917 2.87771,-0.93253 z m -1.33971,-3.03735 c 0.0393,-1.23835 -0.88064,-2.28415 -2.05423,-2.32757 -0.56804,-0.0207 -1.10929,0.19255 -1.5237,0.60219 -0.4162,0.40964 -0.65378,0.96651 -0.67522,1.56493 -0.0376,1.23834 0.88063,2.28225 2.05245,2.32755 0.57161,0.0207 1.11106,-0.19253 1.52549,-0.60218 0.4144,-0.40963 0.65377,-0.96462 0.67521,-1.56492"
         style="fill:url(#k)"
         inkscape:connector-curvature="0" />
      <path
         id="path102"
         d="m 426.82258,512.65936 0.0143,0.0737 c 0.004,0.004 0.007,0.008 0.0107,0.0113 0.57876,0.6324 1.34687,3.26578 1.42725,3.81322 l -0.0323,0.0548 c -0.0304,0.009 -0.10183,0.0659 -0.19829,0.13214 -0.14468,0.10761 -0.36082,0.25862 -0.61447,0.41342 l -0.0143,0.82871 c 0.17686,-0.0888 0.42692,-0.18687 0.53768,-0.25862 l 0,-0.004 0.15362,-0.034 c 0.0428,0.0358 0.0375,0.1095 0.0249,0.17366 -0.0286,0.15103 -0.10005,0.42475 -0.14647,0.55312 l -0.0374,0.10762 c -0.0554,0.15857 -0.11074,0.30771 -0.21613,0.39832 -0.28937,0.27936 -0.75203,0.50212 -1.47904,0.83625 -1.12358,0.51913 -2.94202,0.84382 -4.63364,0.8325 -0.60555,-0.0132 -1.19146,-0.0831 -1.7059,-0.14347 -1.57551,-0.19066 -2.71517,-0.32847 -2.95096,1.1836 -0.29831,1.88772 1.38973,4.20019 1.40581,4.22096 l 0,0.0623 -0.0554,0.0151 c 0,0 -2.69015,-1.31008 -2.75625,-1.34974 l -0.084,-0.0623 -0.0696,-0.0698 c -0.20364,-0.20577 -0.61091,-0.66825 -1.43797,-1.68197 -1.60407,-1.95945 -3.48325,-2.21996 -4.93015,-1.84809 -0.35189,0.0888 -0.80025,0.36056 -1.09142,0.66826 -0.7556,0.78718 -0.66807,2.37289 -0.6252,2.95052 0.05,0.65316 0.0803,0.70223 0.0947,0.7551 l -0.007,0.0659 -0.0554,0.008 -0.0323,-0.0227 -2.20427,-1.14019 -0.084,-0.38321 c -0.0573,-0.25105 -0.12327,-0.52666 -0.2483,-0.87778 -0.78954,-2.19731 -2.56154,-3.85474 -4.51396,-4.20963 -1.32005,-0.23975 -3.72619,-0.26617 -4.99983,2.27471 -0.53231,1.06091 -0.50014,2.44461 0.084,3.60934 0.59484,1.19114 1.65767,1.95568 2.91702,2.10104 1.24862,0.14346 2.1882,-0.16046 2.71515,-0.88158 0.53053,-0.72678 0.62877,-1.71972 0.25186,-2.52578 -0.40369,-0.86647 -1.01461,-1.32519 -1.8631,-1.40068 -0.64483,-0.0604 -1.12535,0.22273 -1.29862,0.51157 -0.05,0.0907 -0.14112,0.25861 -0.1429,0.49836 l 0,0.008 c 0,0.64939 0.56267,0.82872 0.677,0.83627 0.0358,0 0.20542,-0.004 0.4287,-0.0624 l 0.10896,-0.0377 0.0769,-0.0303 0.0518,-0.008 c 0.40907,-0.0794 0.80383,0.17558 0.91815,0.59654 0.0196,0.0773 0.0323,0.151 0.0323,0.22841 0,0.27938 -0.13397,0.538 -0.35547,0.69655 l -0.0518,0.0378 c -0.11788,0.0794 -0.22686,0.1208 -0.34118,0.15856 -0.31975,0.11138 -0.60377,0.16235 -0.88957,0.16235 -0.97354,-10e-4 -2.32932,-0.88534 -2.34717,-2.54842 -0.008,-0.93821 0.43584,-1.79524 1.2218,-2.34456 0.90387,-0.63051 2.46687,-0.8457 3.91376,0.0924 1.78272,1.1534 2.24537,3.41112 1.77915,4.9515 -0.67522,2.22943 -2.57583,3.42245 -5.08736,3.18648 -0.88063,-0.0831 -1.72554,-0.36998 -2.47757,-0.81927 l 9.49591,8.3985 28.55204,0 0,-16.56857 z"
         style="opacity:0.2;fill:url(#l);fill-rule:evenodd"
         inkscape:connector-curvature="0" />
    </g>
  </g>
</svg>
