<?xml version="1.0" encoding="UTF-8" standalone="no"?>
<svg
   xmlns:dc="http://purl.org/dc/elements/1.1/"
   xmlns:cc="http://creativecommons.org/ns#"
   xmlns:rdf="http://www.w3.org/1999/02/22-rdf-syntax-ns#"
   xmlns:svg="http://www.w3.org/2000/svg"
   xmlns="http://www.w3.org/2000/svg"
   xmlns:xlink="http://www.w3.org/1999/xlink"
   id="svg2"
   height="32"
   version="1.1"
   width="32">
  <defs
     id="defs5455">
    <linearGradient
       gradientTransform="matrix(1 0 0 1 -384.57143 -515.798)"
       gradientUnits="userSpaceOnUse"
       x2="407.57144"
       y2="538.79797"
       x1="393.57144"
       y1="524.79797"
       id="linearGradient4305"
       xlink:href="#linearGradient4227" />
    <linearGradient
       id="linearGradient4227">
      <stop
         id="stop4229"
         style="stop-color:#292c2f" />
      <stop
         id="stop4231"
         style="stop-opacity:0"
         offset="1" />
    </linearGradient>
    <linearGradient
       id="linearGradient4143">
      <stop
         id="stop4145"
         style="stop-color:#197cf1" />
      <stop
         id="stop4147"
         style="stop-color:#20bcfa"
         offset="1" />
    </linearGradient>
    <linearGradient
       gradientUnits="userSpaceOnUse"
       x2="0"
       y2="7"
       y1="18"
       id="linearGradient4216"
       xlink:href="#linearGradient4143" />
  </defs>
  <metadata
     id="metadata5458">
    <rdf:RDF>
      <cc:Work
         rdf:about="">
        <dc:format>image/svg+xml</dc:format>
        <dc:type
           rdf:resource="http://purl.org/dc/dcmitype/StillImage" />
        <dc:title></dc:title>
      </cc:Work>
    </rdf:RDF>
  </metadata>
  <g
     transform="matrix(1 0 0 1 -384.57143 -515.798)"
     id="layer1">
    <rect
       id="rect4179"
       style="fill:#ececec"
       height="27.999973"
       rx="13.999987"
       y="517.79797"
       x="386.57144"
       width="27.999973" />
    <path
       transform="matrix(1 0 0 1 384.57143 515.798)"
       d="M 15 7 L 15 17.691406 L 24.283203 26.974609 C 26.559775 25.303697 28.302448 22.963365 29.234375 20.234375 L 16 7 L 15 7 z "
       id="path4294"
       style="fill:url(#linearGradient4305);opacity:0.2;fill-rule:evenodd" />
    <path
       transform="matrix(1 0 0 1 384.57143 515.798)"
       d="M 15 7 L 15 17 L 15 18 L 23 18 L 23 17 L 16 17 L 16 7 L 15 7 z "
       id="rect4276"
       style="fill:url(#linearGradient4216)" />
  </g>
</svg>
