<?xml version="1.0" encoding="UTF-8" standalone="no"?>
<svg
   xmlns:dc="http://purl.org/dc/elements/1.1/"
   xmlns:cc="http://creativecommons.org/ns#"
   xmlns:rdf="http://www.w3.org/1999/02/22-rdf-syntax-ns#"
   xmlns:svg="http://www.w3.org/2000/svg"
   xmlns="http://www.w3.org/2000/svg"
   xmlns:xlink="http://www.w3.org/1999/xlink"
   id="svg2"
   height="64"
   version="1.1"
   width="64">
  <defs
     id="defs5455">
    <linearGradient
       gradientTransform="matrix(1.2998888 0 0 1.3 -499.09733 -648.93736)"
       x2="422.57147"
       gradientUnits="userSpaceOnUse"
       x1="408.5715"
       y2="537.79797"
       y1="523.79797"
       xlink:href="#linearGradient4227"
       id="linearGradient4372" />
    <linearGradient
       id="linearGradient4227">
      <stop
         id="stop4229"
         style="stop-color:#292c2f" />
      <stop
         id="stop4231"
         style="stop-opacity:0"
         offset="1" />
    </linearGradient>
    <linearGradient
       gradientTransform="matrix(1.5292812 0 0 1.529412 -592.82053 -769.10295)"
       gradientUnits="userSpaceOnUse"
       x2="0"
       y2="506.798"
       y1="540.79797"
       xlink:href="#linearGradient4300"
       id="linearGradient3834" />
    <linearGradient
       gradientTransform="matrix(0.52941243 0 0 0.52941244 -184.30279 -245.30519)"
       gradientUnits="userSpaceOnUse"
       x2="0"
       y2="506.798"
       y1="540.79797"
       xlink:href="#linearGradient4351"
       id="linearGradient3862" />
    <linearGradient
       id="linearGradient4300">
      <stop
         id="stop4302"
         style="stop-color:#bdc3c7" />
      <stop
         id="stop4304"
         style="stop-color:#dadfe1"
         offset="1" />
    </linearGradient>
    <linearGradient
       id="linearGradient4351">
      <stop
         id="stop4353"
         style="stop-color:#566472" />
      <stop
         id="stop4355"
         style="stop-color:#6c7a89"
         offset="1" />
    </linearGradient>
    <linearGradient
       gradientUnits="userSpaceOnUse"
       x2="0"
       y2="512.79999"
       y1="543.79999"
       id="a">
      <stop
         id="stop7"
         stop-color="#cea476" />
      <stop
         id="stop9"
         stop-color="#dab58b"
         offset="1" />
    </linearGradient>
    <linearGradient
       gradientTransform="translate(-390.57,-493.8)"
       gradientUnits="userSpaceOnUse"
       x2="0"
       y2="503.79999"
       y1="512.79999"
       id="d"
       xlink:href="#a" />
    <linearGradient
       gradientUnits="userSpaceOnUse"
       x2="0"
       y2="512.79999"
       y1="543.79999"
       id="linearGradient6052">
      <stop
         id="stop6054"
         stop-color="#cea476" />
      <stop
         id="stop6056"
         stop-color="#dab58b"
         offset="1" />
    </linearGradient>
    <linearGradient
       gradientUnits="userSpaceOnUse"
       x2="0"
       y2="503.79999"
       y1="512.79999"
       id="b">
      <stop
         id="stop12"
         stop-color="#ebc69a" />
      <stop
         id="stop14"
         stop-opacity="0"
         stop-color="#f4e0c8"
         offset="1" />
    </linearGradient>
    <linearGradient
       gradientTransform="translate(0,-1025.6)"
       x2="0"
       gradientUnits="userSpaceOnUse"
       y2="503.79999"
       y1="512.79999"
       id="c"
       xlink:href="#b" />
    <linearGradient
       gradientUnits="userSpaceOnUse"
       x2="0"
       y2="503.79999"
       y1="512.79999"
       id="linearGradient6063">
      <stop
         id="stop6065"
         stop-color="#ebc69a" />
      <stop
         id="stop6067"
         stop-opacity="0"
         stop-color="#f4e0c8"
         offset="1" />
    </linearGradient>
    <linearGradient
       gradientTransform="translate(-390.57,-493.8)"
       gradientUnits="userSpaceOnUse"
       x2="417.57001"
       y2="534.79999"
       x1="399.57001"
       y1="516.79999"
       id="e">
      <stop
         id="stop19"
         stop-color="#292c2f" />
      <stop
         id="stop21"
         stop-opacity="0"
         offset="1" />
    </linearGradient>
    <linearGradient
       xlink:href="#linearGradient4303-6"
       id="linearGradient4643-8-2-8-02"
       gradientUnits="userSpaceOnUse"
       gradientTransform="matrix(1.3333333,0,0,1.2703672,104.47602,-123.65095)"
       y1="543.79797"
       x2="0"
       y2="502.65509" />
    <linearGradient
       id="linearGradient4303-6">
      <stop
         id="stop12-3"
         stop-color="#c6cdd1" />
      <stop
         id="stop14-6"
         stop-color="#e0e5e7"
         offset="1" />
    </linearGradient>
    <linearGradient
       y2="199.93361"
       x2="779.85718"
       y1="179.93361"
       x1="759.85718"
       gradientTransform="matrix(-1,0,0,1,1552.2737,297.83051)"
       gradientUnits="userSpaceOnUse"
       id="linearGradient5373"
       xlink:href="#linearGradient4303" />
    <linearGradient
       id="linearGradient4303">
      <stop
         stop-color="#197cf1"
         id="stop3582" />
      <stop
         offset="1"
         stop-color="#21c9fb"
         id="stop3584" />
    </linearGradient>
    <linearGradient
       y2="199.93361"
       x2="779.85718"
       y1="179.93361"
       x1="759.85718"
       gradientTransform="matrix(-1,0,0,1,1552.2737,297.83051)"
       gradientUnits="userSpaceOnUse"
       id="linearGradient4281"
       xlink:href="#linearGradient4303" />
  </defs>
  <metadata
     id="metadata5458">
    <rdf:RDF>
      <cc:Work
         rdf:about="">
        <dc:format>image/svg+xml</dc:format>
        <dc:type
           rdf:resource="http://purl.org/dc/dcmitype/StillImage" />
        <dc:title></dc:title>
      </cc:Work>
    </rdf:RDF>
  </metadata>
  <g
     transform="matrix(1 0 0 1 -376.57144 -491.79797)"
     id="layer1">
    <path
       transform="matrix(1 0 0 1 376.57144 491.79797)"
       d="M 32 6 C 17.59725 6 6.0019531 17.59602 6.0019531 32 C 6.0019531 46.40398 17.59725 58 32 58 C 46.40275 58 57.998047 46.40398 57.998047 32 C 57.998047 17.59602 46.40275 6 32 6 z M 32 29 C 33.662 29 35 30.338 35 32 C 35 33.662 33.662 35 32 35 C 30.338 35 29 33.662 29 32 C 29 30.338 30.338 29 32 29 z "
       id="rect4146"
       style="fill:url(#linearGradient3834)" />
    <path
       transform="matrix(1 0 0 1 376.57144 491.79797)"
       d="M 38.125 25.375 L 37.570312 26.257812 A 8 8 0 0 1 40 32 A 8 8 0 0 1 32 40 A 8 8 0 0 1 25.669922 36.876953 L 24.71875 37.375 L 42.683594 55.683594 C 48.453734 53.085924 53.084131 48.454284 55.681641 42.683594 L 38.125 25.375 z M 37.025391 27.126953 L 34.736328 30.777344 C 34.90297 31.151175 35 31.562905 35 32 C 35 33.662 33.662 35 32 35 C 31.358211 35 30.768025 34.795724 30.28125 34.455078 L 26.564453 36.40625 A 7 7 0 0 0 32 39 A 7 7 0 0 0 39 32 A 7 7 0 0 0 37.025391 27.126953 z "
       id="path4364"
       style="fill:url(#linearGradient4372);opacity:0.2;fill-rule:evenodd" />
    <path
       transform="matrix(1 0 0 1 376.57144 491.79797)"
       d="M 32 23 C 27.014 23 23 27.014 23 32 C 23 36.986 27.014 41 32 41 C 36.986 41 41 36.986 41 32 C 41 27.014 36.986 23 32 23 z M 32 24 A 8 8 0 0 1 40 32 A 8 8 0 0 1 32 40 A 8 8 0 0 1 24 32 A 8 8 0 0 1 32 24 z M 32 25 A 7 7 0 0 0 25 32 A 7 7 0 0 0 32 39 A 7 7 0 0 0 39 32 A 7 7 0 0 0 32 25 z M 32 29 C 33.662 29 35 30.338 35 32 C 35 33.662 33.662 35 32 35 C 30.338 35 29 33.662 29 32 C 29 30.338 30.338 29 32 29 z "
       id="rect4270"
       style="fill:url(#linearGradient3862)" />
    <path
       transform="matrix(1 0 0 1 376.57144 491.79797)"
       d="m 6.0019531,31.191406 c -0.005,0.21774 0,0.435127 0,0.654297 C 6.0019531,46.334943 17.59723,58 32,58 46.40277,58 57.998047,46.334943 57.998047,31.845703 c 0,-0.21917 0.005,-0.436557 0,-0.654297 C 57.654007,45.374776 46.18454,57 32,57 17.81546,57 6.3459931,45.374776 6.0019531,31.191406 Z"
       id="rect4284"
       style="fill:#2e3132;fill-opacity:0.294118" />
    <path
       transform="matrix(1 0 0 1 376.57144 491.79797)"
       d="M 32 24 A 8 8 0 0 0 24 32 A 8 8 0 0 0 32 40 A 8 8 0 0 0 40 32 A 8 8 0 0 0 32 24 z M 32 25 A 7 7 0 0 1 39 32 A 7 7 0 0 1 32 39 A 7 7 0 0 1 25 32 A 7 7 0 0 1 32 25 z "
       id="path4558"
       style="fill:#2e3132;fill-opacity:0.294118;stroke-linecap:round" />
    <g
       id="g4169"
       transform="translate(-368.3959,21.144021)">
      <path
         id="rect29-9-0-6"
         d="m 778.29737,479.76412 a 9,9 0 0 0 -4.88086,8 9,9 0 0 0 9,9 9,9 0 0 0 9,-9 9,9 0 0 0 -4.89648,-8 l -8.22266,0 z"
         style="fill:url(#linearGradient4643-8-2-8-02)" />
      <rect
         style="fill:#eff0f1"
         id="rect43-4-8-5"
         rx="3.9999962"
         y="481.76416"
         x="780.41644"
         height="7.9999924"
         width="7.9999924" />
      <path
         id="path5346-7-4-5"
         d="m 782.41651,477.76412 a 10,10 0 0 0 -10,10 10,10 0 0 0 10,10 10,10 0 0 0 6.70117,-2.5918 l 9.5918,9.5918 0.70703,-0.70703 -9.5918,-9.5918 a 10,10 0 0 0 2.5918,-6.70117 10,10 0 0 0 -10,-10 z m 0,1 a 9,9 0 0 1 9,9 9,9 0 0 1 -9,9 9,9 0 0 1 -9,-9 9,9 0 0 1 9,-9 z"
         style="fill:url(#linearGradient4281);fill-opacity:1;stroke:none;stroke-width:2;stroke-miterlimit:4;stroke-dasharray:none;stroke-opacity:1" />
      <path
         id="path5346-7-4-5-9"
         d="m 782.41651,477.76412 a 10,10 0 0 0 -10,10 10,10 0 0 0 10,10 10,10 0 0 0 6.70117,-2.5918 l 9.5918,9.5918 0.70703,-0.70703 -9.5918,-9.5918 a 10,10 0 0 0 2.5918,-6.70117 10,10 0 0 0 -10,-10 z m 0,1 a 9,9 0 0 1 9,9 9,9 0 0 1 -9,9 9,9 0 0 1 -9,-9 9,9 0 0 1 9,-9 z"
         style="fill:url(#linearGradient5373);fill-opacity:1;stroke:none;stroke-width:2;stroke-miterlimit:4;stroke-dasharray:none;stroke-opacity:1" />
    </g>
  </g>
</svg>
