<?xml version="1.0" encoding="UTF-8" standalone="no"?>
<svg
   xmlns:dc="http://purl.org/dc/elements/1.1/"
   xmlns:cc="http://creativecommons.org/ns#"
   xmlns:rdf="http://www.w3.org/1999/02/22-rdf-syntax-ns#"
   xmlns:svg="http://www.w3.org/2000/svg"
   xmlns="http://www.w3.org/2000/svg"
   xmlns:xlink="http://www.w3.org/1999/xlink"
   xmlns:sodipodi="http://sodipodi.sourceforge.net/DTD/sodipodi-0.dtd"
   xmlns:inkscape="http://www.inkscape.org/namespaces/inkscape"
   width="48"
   height="48"
   id="svg2"
   version="1.1"
   inkscape:version="0.91 r13725"
   sodipodi:docname="yast-kdump.svg">
  <metadata
     id="metadata85">
    <rdf:RDF>
      <cc:Work
         rdf:about="">
        <dc:format>image/svg+xml</dc:format>
        <dc:type
           rdf:resource="http://purl.org/dc/dcmitype/StillImage" />
        <dc:title></dc:title>
      </cc:Work>
    </rdf:RDF>
  </metadata>
  <sodipodi:namedview
     pagecolor="#ffffff"
     bordercolor="#666666"
     borderopacity="1"
     objecttolerance="10"
     gridtolerance="10"
     guidetolerance="10"
     inkscape:pageopacity="0"
     inkscape:pageshadow="2"
     inkscape:window-width="796"
     inkscape:window-height="480"
     id="namedview83"
     showgrid="false"
     inkscape:zoom="4.9166667"
     inkscape:cx="24"
     inkscape:cy="24"
     inkscape:window-x="0"
     inkscape:window-y="0"
     inkscape:window-maximized="0"
     inkscape:current-layer="g27" />
  <defs
     id="defs4">
    <linearGradient
       id="a"
       y1="44"
       y2="4"
       gradientUnits="userSpaceOnUse"
       x2="0"
       gradientTransform="translate(0 1004.36)">
      <stop
         stop-color="#63984b"
         id="stop7" />
      <stop
         offset="1"
         stop-color="#8fc278"
         id="stop9" />
    </linearGradient>
    <linearGradient
       id="b"
       y1="11"
       x1="17"
       y2="41"
       gradientUnits="userSpaceOnUse"
       x2="44"
       gradientTransform="translate(0 1004.36)">
      <stop
         id="stop12" />
      <stop
         offset="1"
         stop-opacity="0"
         id="stop14" />
    </linearGradient>
    <linearGradient
       id="c"
       y1="40"
       y2="6"
       gradientUnits="userSpaceOnUse"
       x2="0"
       gradientTransform="matrix(.94118 0 0 .91176 1.412 1006.44)">
      <stop
         stop-color="#b1b1b1"
         id="stop17" />
      <stop
         offset="1"
         stop-color="#dddddd"
         id="stop19" />
    </linearGradient>
    <linearGradient
       xlink:href="#b"
       id="d"
       y1="21"
       x1="23"
       y2="39"
       gradientUnits="userSpaceOnUse"
       x2="40"
       gradientTransform="translate(0 1004.36)" />
    <linearGradient
       id="e"
       y1="1040.95"
       y2="1012.95"
       gradientUnits="userSpaceOnUse"
       x2="0">
      <stop
         stop-color="#f2f2f2"
         id="stop23" />
      <stop
         offset="1"
         stop-color="#ffffff"
         id="stop25" />
    </linearGradient>
  </defs>
  <g
     transform="translate(0-1004.36)"
     id="g27">
    <g
       fill-rule="evenodd"
       id="g29">
      <path
         fill="#dce269"
         d="m4 1008.36v9l3 2-3 2v27h40v-40z"
         id="path31" />
      <path
         fill="url(#a)"
         d="m4 1008.36v8l3 2-3 2v27h40v-39z"
         id="path33" />
    </g>
    <g
       fill="#dee372"
       color="#000000"
       id="g35">
      <path
         opacity=".6"
         d="m9 1044.36v1h1v-1zm1 1v1h1v-1zm1 0h1v-1h-1zm1 0v1h1v-1zm1 0h1v-1h-1zm1 0v1h1v-1zm1 0h1v-1h-1zm1 0v1h1v-1zm1 0h1v-1h-1zm1 0v1h1v-1zm1 0h1v-1h-1zm1 0v1h1v-1zm1 0h1v-1h-1zm1 0v1h1v-1zm1 0h1v-1h-1zm1 0v1h1v-1z"
         id="path37" />
      <path
         opacity=".6"
         d="m35 1044.36v1h1v-1zm1 1v1h1v-1zm1 0h1v-1h-1zm1 0v1h1v-1zm1 0h1v-1h-1zm-4 0h-1v1h1z"
         id="path39" />
    </g>
    <path
       fill="#e6ea97"
       fill-rule="evenodd"
       d="m43 1044.36l-2 2h2z"
       id="path41" />
    <path
       opacity=".6"
       fill="#dee372"
       color="#000000"
       d="m42 1013.36v1h1v-1zm0 1h-1v1h1zm0 1v1h1v-1zm0 1h-1v1h1zm0 1v1h1v-1zm0 1h-1v1h1zm0 1v1h1v-1zm0 1h-1v1h1zm0 1v1h1v-1zm0 1h-1v1h1zm0 1v1h1v-1zm0 1h-1v1h1zm0 1v1h1v-1zm0 1h-1v1h1zm0 1v1h1v-1zm0 1h-1v1h1z"
       id="path43" />
    <g
       fill-rule="evenodd"
       id="g45">
      <path
         opacity=".2"
         fill="url(#b)"
         d="m40 1012.36v31h-32l4.584 5h31.416v-32z"
         id="path47" />
      <rect
         width="32"
         x="8"
         y="1012.36"
         fill="url(#c)"
         height="31"
         id="rect49" />
      <rect
         width="32"
         x="8"
         y="1042.36"
         fill="#5c5c5c"
         height="1"
         id="rect51" />
      <path
         opacity=".2"
         fill="url(#d)"
         d="m38 1041.36h-28l6.786 6.963 27.21.037v-28l-6-6z"
         id="path53" />
      <path
         fill="url(#e)"
         d="m10 1014.36v27h28v-27z"
         id="path55" />
      <rect
         width="28"
         x="10"
         y="1040.36"
         fill="#878787"
         height="1"
         id="rect57" />
      <g
         fill="#bcbcbc"
         id="g59">
        <rect
           width="8"
           x="13"
           y="1032.36"
           height="1"
           id="rect61" />
        <rect
           width="6"
           x="22"
           y="1032.36"
           height="1"
           id="rect63" />
        <rect
           width="7"
           x="13"
           y="1034.36"
           height="1"
           id="rect65" />
        <rect
           width="3"
           x="21"
           y="1034.36"
           height="1"
           id="rect67" />
        <rect
           width="4.03"
           x="13"
           y="1036.36"
           height="1"
           id="rect69" />
        <rect
           width="8"
           x="18"
           y="1036.36"
           height="1"
           id="rect71" />
      </g>
      <g
         fill="#959595"
         id="g73">
        <rect
           width="10"
           x="13"
           y="1016.36"
           height="1"
           id="rect75" />
        <rect
           width="5"
           x="24"
           y="1016.36"
           height="1"
           id="rect77" />
        <rect
           width="7"
           x="13"
           y="1018.36"
           height="1"
           id="rect79" />
        <rect
           width="4"
           x="22"
           y="1018.36"
           height="1"
           id="rect81" />
      </g>
    </g>
  </g>
</svg>
