<?xml version="1.0" encoding="UTF-8" standalone="no"?>
<svg
   xmlns:dc="http://purl.org/dc/elements/1.1/"
   xmlns:cc="http://creativecommons.org/ns#"
   xmlns:rdf="http://www.w3.org/1999/02/22-rdf-syntax-ns#"
   xmlns:svg="http://www.w3.org/2000/svg"
   xmlns="http://www.w3.org/2000/svg"
   xmlns:sodipodi="http://sodipodi.sourceforge.net/DTD/sodipodi-0.dtd"
   xmlns:inkscape="http://www.inkscape.org/namespaces/inkscape"
   width="48"
   height="48"
   id="svg2"
   version="1.1"
   inkscape:version="0.91 r13725"
   sodipodi:docname="yast-support.svg"
   inkscape:export-filename="/tmp/yast-support.png"
   inkscape:export-xdpi="60"
   inkscape:export-ydpi="60">
  <metadata
     id="metadata44">
    <rdf:RDF>
      <cc:Work
         rdf:about="">
        <dc:format>image/svg+xml</dc:format>
        <dc:type
           rdf:resource="http://purl.org/dc/dcmitype/StillImage" />
        <dc:title></dc:title>
      </cc:Work>
    </rdf:RDF>
  </metadata>
  <sodipodi:namedview
     pagecolor="#ffffff"
     bordercolor="#666666"
     borderopacity="1"
     objecttolerance="10"
     gridtolerance="10"
     guidetolerance="10"
     inkscape:pageopacity="0"
     inkscape:pageshadow="2"
     inkscape:window-width="1600"
     inkscape:window-height="871"
     id="namedview42"
     showgrid="false"
     inkscape:zoom="4.9166667"
     inkscape:cx="24"
     inkscape:cy="24"
     inkscape:window-x="0"
     inkscape:window-y="0"
     inkscape:window-maximized="1"
     inkscape:current-layer="svg2" />
  <defs
     id="defs4">
    <linearGradient
       id="a"
       y1="542.69"
       y2="503.8"
       x2="0"
       gradientUnits="userSpaceOnUse">
      <stop
         stop-color="#c6cdd1"
         id="stop7" />
      <stop
         offset="1"
         stop-color="#e0e5e7"
         id="stop9" />
    </linearGradient>
    <linearGradient
       id="b"
       y1="44"
       y2="4"
       gradientUnits="userSpaceOnUse"
       x2="0"
       gradientTransform="matrix(.99794 0 0 1.0073-383.81-503.28)">
      <stop
         stop-color="#cea476"
         id="stop12" />
      <stop
         offset="1"
         stop-color="#dab58b"
         id="stop14" />
    </linearGradient>
    <linearGradient
       id="c"
       y1="42"
       y2="6"
       x2="0"
       gradientUnits="userSpaceOnUse">
      <stop
         stop-color="#c61423"
         id="stop17" />
      <stop
         offset="1"
         stop-color="#dc2b41"
         id="stop19" />
    </linearGradient>
    <linearGradient
       id="d"
       y1="503.8"
       x1="399.57"
       y2="528.8"
       x2="424.57"
       gradientUnits="userSpaceOnUse"
       gradientTransform="translate(-384.57-499.8)">
      <stop
         stop-color="#292c2f"
         id="stop22" />
      <stop
         offset="1"
         stop-opacity="0"
         id="stop24" />
    </linearGradient>
  </defs>
  <g
     transform="translate(-384.57-499.8)"
     id="g26">
    <path
       stroke-opacity=".55"
       fill="url(#a)"
       stroke-width="2.8"
       d="m408.57 503.8c-11.08 0-20 8.92-20 20 0 11.08 8.92 20 20 20 11.08 0 20-8.92 20-20 0-11.08-8.92-20-20-20m0 11.11c4.924 0 8.889 3.964 8.889 8.889 0 4.924-3.964 8.889-8.889 8.889-4.924 0-8.889-3.964-8.889-8.889 0-4.924 3.964-8.889 8.889-8.889"
       id="path28" />
    <path
       fill="url(#c)"
       fill-rule="evenodd"
       d="m15.223 6.04c-4.506 2.197-8.05 6.03-9.865 10.738l9.898 5.656c.56-3.162 2.777-5.729 5.73-6.789zm17.555 0l-5.764 9.605c2.954 1.06 5.171 3.627 5.73 6.789l9.898-5.656c-1.818-4.712-5.359-8.541-9.865-10.738m-17.521 19.531l-9.898 5.656c1.818 4.712 5.359 8.541 9.865 10.738l5.764-9.605c-2.954-1.06-5.171-3.627-5.73-6.789m17.488 0c-.56 3.162-2.777 5.729-5.73 6.789l5.764 9.605c4.506-2.197 8.05-6.03 9.865-10.738z"
       transform="translate(384.57 499.8)"
       id="path30" />
    <g
       transform="translate(384.57 499.8)"
       id="g32">
      <path
         stroke-opacity=".55"
         fill="#99a1a7"
         stroke-width="2.8"
         d="m4.01 23.5c-.004.167-.012.332-.012.5 0 11.08 8.92 20 20 20 11.08 0 20-8.92 20-20 0-.168-.008-.333-.012-.5-.265 10.846-9.08 19.5-19.988 19.5-10.912 0-19.724-8.654-19.988-19.5"
         id="path34" />
      <path
         opacity=".2"
         fill="url(#d)"
         fill-rule="evenodd"
         d="m11 10l-.805 3-2.195 4-1 3-1 4 1 4 3 9h-1l2.975 2.975c3.345 2.518 7.498 4.03 12.03 4.03 6.05 0 11.446-2.672 15.11-6.893l-7.902-7.902c-1.612 2.232-4.23 3.684-7.205 3.684-4.924 0-8.889-3.964-8.889-8.889 0-2.975 1.452-5.593 3.684-7.205l-6.795-6.795z"
         id="path36" />
      <path
         stroke-opacity=".55"
         fill="url(#b)"
         stroke-width="2.8"
         d="m10.5 11c-.277 0-.5.223-.5.5 0 .174.093.319.227.408-2.657 3.418-4.264 7.711-4.264 12.412 0 4.567 1.53 8.737 4.053 12.11-.004.025-.016.048-.016.074 0 .277.223.5.5.5.277 0 .5-.223.5-.5 0-.032-.012-.061-.018-.092h.16c-.046-.138-.108-.26-.189-.342-2.495-3.24-3.992-7.307-3.992-11.746 0-.555.025-1.104.07-1.646.321-3.797 1.739-7.263 3.922-10.1.339-.342.388-1.35 0-1.576-.039.045-.073.094-.111.139-.089-.085-.208-.139-.342-.139m26.473 0c-.388.226-.339 1.234 0 1.576 2.183 2.835 3.601 6.301 3.922 10.1.046.542.07 1.092.07 1.646 0 4.439-1.497 8.506-3.992 11.746-.081.082-.144.204-.189.342h.115l.104.105c.007.264.217.473.48.482l.004.004.002-.002c.004 0 .008.002.012.002.277 0 .5-.223.5-.5 0-.054-.016-.104-.031-.152 2.488-3.355 3.994-7.496 3.994-12.03 0-4.686-1.596-8.966-4.238-12.379.162-.083.275-.246.275-.441 0-.277-.223-.5-.5-.5-.155 0-.287.075-.379.186-.051-.06-.096-.126-.148-.186"
         id="path38" />
    </g>
    <path
       stroke-opacity=".55"
       fill="#7e1722"
       stroke-width="2.8"
       d="m395.07 509.8c-.831 0-1.5.669-1.5 1.5 0 .831.669 1.5 1.5 1.5.831 0 1.5-.669 1.5-1.5 0-.831-.669-1.5-1.5-1.5m27 0c-.831 0-1.5.669-1.5 1.5 0 .831.669 1.5 1.5 1.5.831 0 1.5-.669 1.5-1.5 0-.831-.669-1.5-1.5-1.5m-27 1c.277 0 .5.223.5.5 0 .277-.223.5-.5.5-.277 0-.5-.223-.5-.5 0-.277.223-.5.5-.5m27 0c.277 0 .5.223.5.5 0 .277-.223.5-.5.5-.277 0-.5-.223-.5-.5 0-.277.223-.5.5-.5m-27 24c-.831 0-1.5.669-1.5 1.5 0 .831.669 1.5 1.5 1.5.831 0 1.5-.669 1.5-1.5 0-.831-.669-1.5-1.5-1.5m27 0c-.831 0-1.5.669-1.5 1.5 0 .831.669 1.5 1.5 1.5.831 0 1.5-.669 1.5-1.5 0-.831-.669-1.5-1.5-1.5m-27 1c.277 0 .5.223.5.5 0 .277-.223.5-.5.5-.277 0-.5-.223-.5-.5 0-.277.223-.5.5-.5m27 0c.277 0 .5.223.5.5 0 .277-.223.5-.5.5-.277 0-.5-.223-.5-.5 0-.277.223-.5.5-.5"
       id="path40" />
  </g>
</svg>
